<?xml version="1.0" encoding="UTF-8"?>

<!--  Dyatlova, Yekaterina, Tadevosyan, Hasmik, Arhuata Meza, Carla -->

<!DOCTYPE svg PUBLIC "-//W3C//DTD SVG 1.0//EN" "http://www.w3.org/TR/2001/REC-SVG-20010904/DTD/svg10.dtd">
<svg xmlns="http://www.w3.org/2000/svg" width="100%" height="100%">
    
    <g id="mancala">
        <rect x="20" y="360" width="300" height="100" style="stroke:#006600; fill: #778899"/>
        <text x="40" y="420"
            style="fill: #000000; stroke: none; font-size: 24px;">
            YOUR TURN PLAYER 1
        </text>
        <rect x="0" y="0" width="1000" height="300" style="stroke:#006600; fill: #deb887"/>
        <ellipse cx="70" cy="150" rx="60" ry="120"  style="stroke:#006600; fill: #a0522d"/>
        
        <!--- ober gruben -->
        <circle cx="200" cy="80" r="50" style="stroke:#006600; fill: #a0522d"/>
        <circle cx="320" cy="80" r="50" style="stroke:#006600; fill: #a0522d"/>
        <circle cx="440" cy="80" r="50" style="stroke:#006600; fill: #a0522d"/>
        <circle cx="560" cy="80" r="50" style="stroke:#006600; fill: #a0522d"/>
        <circle cx="680" cy="80" r="50" style="stroke:#006600; fill: #a0522d"/>
        <circle cx="800" cy="80" r="50" style="stroke:#006600; fill: #a0522d"/>
        
        <circle cx="200" cy="220" r="50" style="stroke:#006600; fill: #a0522d"/>
        <circle cx="320" cy="220" r="50" style="stroke:#006600; fill: #a0522d"/>
        <circle cx="440" cy="220" r="50" style="stroke:#006600; fill: #a0522d"/>
        <circle cx="560" cy="220" r="50" style="stroke:#006600; fill: #a0522d"/>
        <circle cx="680" cy="220" r="50" style="stroke:#006600; fill: #a0522d"/>
        <circle cx="800" cy="220" r="50" style="stroke:#006600; fill: #a0522d"/>
        
        <circle cx="200" cy="60" r="10" style="stroke:#006600; fill: #0000ff"/>
        <circle cx="180" cy="100" r="10" style="stroke:#006600; fill: #ff0000"/>
        <circle cx="220" cy="100" r="10" style="stroke:#006600; fill: #adff2f"/>
        <circle cx="320" cy="60" r="10" style="stroke:#006600; fill: #0000ff"/>
        <circle cx="300" cy="100" r="10" style="stroke:#006600; fill: #ff0000"/>
        <circle cx="340" cy="100" r="10" style="stroke:#006600; fill: #adff2f"/>
        <circle cx="440" cy="60" r="10" style="stroke:#006600; fill: #0000ff"/>
        <circle cx="420" cy="100" r="10" style="stroke:#006600; fill: #ff0000"/>
        <circle cx="460" cy="100" r="10" style="stroke:#006600; fill: #adff2f"/>
        <circle cx="560" cy="60" r="10" style="stroke:#006600; fill: #0000ff"/>
        <circle cx="540" cy="100" r="10" style="stroke:#006600; fill: #ff0000"/>
        <circle cx="580" cy="100" r="10" style="stroke:#006600; fill: #adff2f"/>
        <circle cx="680" cy="60" r="10" style="stroke:#006600; fill: #0000ff"/>
        <circle cx="660" cy="100" r="10" style="stroke:#006600; fill: #ff0000"/>
        <circle cx="700" cy="100" r="10" style="stroke:#006600; fill: #adff2f"/>
        <circle cx="800" cy="60" r="10" style="stroke:#006600; fill: #0000ff"/>
        <circle cx="780" cy="100" r="10" style="stroke:#006600; fill: #ff0000"/>
        <circle cx="820" cy="100" r="10" style="stroke:#006600; fill: #adff2f"/>
        
        <circle cx="200" cy="200" r="10" style="stroke:#006600; fill: #0000ff"/>
        <circle cx="180" cy="240" r="10" style="stroke:#006600; fill: #ff0000"/>
        <circle cx="220" cy="240" r="10" style="stroke:#006600; fill: #adff2f"/>
        <circle cx="320" cy="200" r="10" style="stroke:#006600; fill: #0000ff"/>
        <circle cx="300" cy="240" r="10" style="stroke:#006600; fill: #ff0000"/>
        <circle cx="340" cy="240" r="10" style="stroke:#006600; fill: #adff2f"/>
        <circle cx="440" cy="200" r="10" style="stroke:#006600; fill: #0000ff"/>
        <circle cx="420" cy="240" r="10" style="stroke:#006600; fill: #ff0000"/>
        <circle cx="460" cy="240" r="10" style="stroke:#006600; fill: #adff2f"/>
        <circle cx="560" cy="200" r="10" style="stroke:#006600; fill: #0000ff"/>
        <circle cx="540" cy="240" r="10" style="stroke:#006600; fill: #ff0000"/>
        <circle cx="580" cy="240" r="10" style="stroke:#006600; fill: #adff2f"/>
        <circle cx="680" cy="200" r="10" style="stroke:#006600; fill: #0000ff"/>
        <circle cx="660" cy="240" r="10" style="stroke:#006600; fill: #ff0000"/>
        <circle cx="700" cy="240" r="10" style="stroke:#006600; fill: #adff2f"/>
        <circle cx="800" cy="200" r="10" style="stroke:#006600; fill: #0000ff"/>
        <circle cx="780" cy="240" r="10" style="stroke:#006600; fill: #ff0000"/>
        <circle cx="820" cy="240" r="10" style="stroke:#006600; fill: #adff2f"/>
        
        <ellipse cx="930" cy="150" rx="60" ry="120"  style="stroke:#006600; fill: #a0522d"/>
    </g>
    
    
</svg>