<?xml version="1.0" encoding="UTF-8" standalone="no"?><!DOCTYPE svg PUBLIC "-//W3C//DTD SVG 1.1//EN" "http://www.w3.org/Graphics/SVG/1.1/DTD/svg11.dtd"><svg width="100%" height="100%" viewBox="0 0 79 75" version="1.1" xmlns="http://www.w3.org/2000/svg" xmlns:xlink="http://www.w3.org/1999/xlink" xml:space="preserve" style="fill-rule:evenodd;clip-rule:evenodd;stroke-linejoin:round;stroke-miterlimit:1.41421;"><g><circle cx="40.5" cy="65.6" r="9.3" style="fill:#f55a1b;"/><path d="M38.516,60.105c1.216,-0.863 2.332,-1.38 2.492,-1.155c0.159,0.225 -0.698,1.108 -1.913,1.97c-1.215,0.863 -2.331,1.38 -2.491,1.155c-0.16,-0.225 0.697,-1.108 1.912,-1.97Z" style="fill:#fff;"/><circle cx="35.2" cy="63.5" r="0.5" style="fill:#fff;"/></g><g><circle cx="69.3" cy="43" r="9.3" style="fill:#f55a1b;"/><path d="M67.298,37.413c1.215,-0.862 2.332,-1.379 2.491,-1.154c0.16,0.225 -0.697,1.108 -1.912,1.97c-1.215,0.862 -2.332,1.38 -2.491,1.155c-0.16,-0.225 0.697,-1.108 1.912,-1.971Z" style="fill:#fff;"/><circle cx="64" cy="40.8" r="0.5" style="fill:#fff;"/></g><g><circle cx="59.6" cy="60.6" r="9.3" style="fill:#f55a1b;"/><path d="M57.708,55.065c1.215,-0.862 2.332,-1.379 2.491,-1.154c0.16,0.225 -0.697,1.107 -1.912,1.97c-1.215,0.862 -2.332,1.38 -2.491,1.155c-0.16,-0.225 0.697,-1.108 1.912,-1.971Z" style="fill:#fff;"/><circle cx="54.4" cy="58.4" r="0.5" style="fill:#fff;"/></g><g><circle cx="21.3" cy="62.1" r="9.3" style="fill:#f55a1b;"/><path d="M19.409,56.586c1.215,-0.863 2.332,-1.38 2.491,-1.155c0.16,0.225 -0.697,1.108 -1.912,1.97c-1.215,0.863 -2.332,1.38 -2.491,1.155c-0.16,-0.225 0.697,-1.108 1.912,-1.97Z" style="fill:#fff;"/><circle cx="16.1" cy="60" r="0.5" style="fill:#fff;"/></g><g><circle cx="9.3" cy="45.7" r="9.3" style="fill:#f55a1b;"/><path d="M7.296,40.117c1.215,-0.863 2.331,-1.38 2.491,-1.155c0.16,0.225 -0.697,1.108 -1.913,1.97c-1.215,0.863 -2.331,1.38 -2.491,1.155c-0.16,-0.225 0.697,-1.108 1.913,-1.97Z" style="fill:#fff;"/><circle cx="4" cy="43.5" r="0.5" style="fill:#fff;"/></g><g><circle cx="28.8" cy="44" r="9.3" style="fill:#f55a1b;"/><path d="M26.792,38.412c1.216,-0.862 2.332,-1.38 2.492,-1.155c0.159,0.226 -0.698,1.108 -1.913,1.971c-1.215,0.862 -2.332,1.38 -2.491,1.154c-0.16,-0.225 0.697,-1.107 1.912,-1.97Z" style="fill:#fff;"/><circle cx="23.5" cy="41.8" r="0.5" style="fill:#fff;"/></g><g><circle cx="48.3" cy="44.4" r="9.3" style="fill:#f55a1b;"/><path d="M46.321,38.897c1.215,-0.862 2.331,-1.379 2.491,-1.154c0.16,0.225 -0.697,1.108 -1.913,1.97c-1.215,0.862 -2.331,1.38 -2.491,1.155c-0.159,-0.225 0.697,-1.108 1.913,-1.971Z" style="fill:#fff;"/><circle cx="43" cy="42.2" r="0.5" style="fill:#fff;"/></g><g><circle cx="57.9" cy="26.5" r="9.3" style="fill:#f55a1b;"/><path d="M55.961,20.909c1.216,-0.863 2.332,-1.38 2.492,-1.155c0.159,0.225 -0.698,1.108 -1.913,1.97c-1.215,0.863 -2.331,1.38 -2.491,1.155c-0.16,-0.225 0.697,-1.108 1.912,-1.97Z" style="fill:#fff;"/><circle cx="52.7" cy="24.3" r="0.5" style="fill:#fff;"/></g><g><circle cx="16.6" cy="26.5" r="9.3" style="fill:#f55a1b;"/><path d="M14.654,20.88c1.215,-0.862 2.332,-1.379 2.491,-1.154c0.16,0.225 -0.697,1.107 -1.912,1.97c-1.215,0.862 -2.332,1.38 -2.491,1.155c-0.16,-0.225 0.697,-1.108 1.912,-1.971Z" style="fill:#fff;"/><circle cx="11.4" cy="24.3" r="0.5" style="fill:#fff;"/></g><g><circle cx="38.1" cy="26.5" r="9.3" style="fill:#f55a1b;"/><path d="M36.153,20.881c1.216,-0.862 2.332,-1.38 2.492,-1.155c0.159,0.225 -0.698,1.108 -1.913,1.971c-1.215,0.862 -2.331,1.379 -2.491,1.154c-0.16,-0.225 0.697,-1.108 1.912,-1.97Z" style="fill:#fff;"/><circle cx="32.9" cy="24.3" r="0.5" style="fill:#fff;"/></g><g><circle cx="47.4" cy="9.3" r="9.3" style="fill:#f55a1b;"/><path d="M45.476,3.694c1.216,-0.863 2.332,-1.38 2.492,-1.155c0.159,0.225 -0.698,1.108 -1.913,1.97c-1.215,0.863 -2.331,1.38 -2.491,1.155c-0.16,-0.225 0.697,-1.108 1.912,-1.97Z" style="fill:#fff;"/><circle cx="42.2" cy="7.1" r="0.5" style="fill:#fff;"/></g></svg>