<?xml version="1.0" encoding="UTF-8" standalone="no"?><!DOCTYPE svg PUBLIC "-//W3C//DTD SVG 1.1//EN" "http://www.w3.org/Graphics/SVG/1.1/DTD/svg11.dtd"><svg width="100%" height="100%" viewBox="0 0 79 75" version="1.1" xmlns="http://www.w3.org/2000/svg" xmlns:xlink="http://www.w3.org/1999/xlink" xml:space="preserve" style="fill-rule:evenodd;clip-rule:evenodd;stroke-linejoin:round;stroke-miterlimit:1.41421;"><g><circle cx="49.3" cy="41" r="9.3" style="fill:#f55a1b;"/><path d="M47.298,35.413c1.215,-0.862 2.332,-1.379 2.491,-1.154c0.16,0.225 -0.697,1.108 -1.912,1.97c-1.215,0.862 -2.332,1.38 -2.491,1.155c-0.16,-0.225 0.697,-1.108 1.912,-1.971Z" style="fill:#fff;"/><circle cx="44" cy="38.8" r="0.5" style="fill:#fff;"/></g><g><circle cx="37.3" cy="61.1" r="9.3" style="fill:#f55a1b;"/><path d="M35.409,57.586c1.215,-0.863 2.332,-1.38 2.491,-1.155c0.16,0.225 -0.697,1.108 -1.912,1.97c-1.215,0.863 -2.332,1.38 -2.491,1.155c-0.16,-0.225 0.697,-1.108 1.912,-1.97Z" style="fill:#fff;"/><circle cx="40.1" cy="60" r="0.5" style="fill:#fff;"/></g><g><circle cx="23.3" cy="41.7" r="9.3" style="fill:#f55a1b;"/><path d="M21.296,36.117c1.215,-0.863 2.331,-1.38 2.491,-1.155c0.16,0.225 -0.697,1.108 -1.913,1.97c-1.215,0.863 -2.331,1.38 -2.491,1.155c-0.16,-0.225 0.697,-1.108 1.913,-1.97Z" style="fill:#fff;"/><circle cx="18" cy="39.5" r="0.5" style="fill:#fff;"/></g><g><circle cx="60.9" cy="17.5" r="9.3" style="fill:#f55a1b;"/><path d="M58.961,13.909c1.216,-0.863 2.332,-1.38 2.492,-1.155c0.159,0.225 -0.698,1.108 -1.913,1.97c-1.215,0.863 -2.331,1.38 -2.491,1.155c-0.16,-0.225 0.697,-1.108 1.912,-1.97Z" style="fill:#fff;"/><circle cx="55.7" cy="17.3" r="0.5" style="fill:#fff;"/></g><g><circle cx="15.6" cy="17.5" r="9.3" style="fill:#f55a1b;"/><path d="M14.654,20.88c1.215,-0.862 2.332,-1.379 2.491,-1.154c0.16,0.225 -0.697,1.107 -1.912,1.97c-1.215,0.862 -2.332,1.38 -2.491,1.155c-0.16,-0.225 0.697,-1.108 1.912,-1.971Z" style="fill:#fff;"/><circle cx="11.4" cy="24.3" r="0.5" style="fill:#fff;"/></g><g><g><circle cx="37.1" cy="13.5" r="9.3" style="fill:#f55a1b;"/><path d="M35.153,7.881c1.216,-0.862 2.332,-1.38 2.492,-1.155c0.159,0.225 -0.698,1.108 -1.913,1.971c-1.215,0.862 -2.331,1.379 -2.491,1.154c-0.16,-0.225 0.697,-1.108 1.912,-1.97Z" style="fill:#fff;"/><circle cx="31.9" cy="11.3" r="0.5" style="fill:#fff;"/></g></g></svg>